<?xml version="1.0" encoding="utf-8"?>
<!-- Generator: Adobe Illustrator 23.0.3, SVG Export Plug-In . SVG Version: 6.00 Build 0)  -->
<svg version="1.1" xmlns="http://www.w3.org/2000/svg" xmlns:xlink="http://www.w3.org/1999/xlink" x="0px" y="0px"
	 viewBox="0 0 1799.6 1200.87" style="enable-background:new 0 0 1799.6 1200.87;" xml:space="preserve">
<style type="text/css">
	.st0{fill:#E3E5FC;}
	.st1{fill:#FFFFFF;}
	.st2{fill:#A7ADFF;}
	.st3{fill:#F44E4E;}
	.st4{fill:#FDC510;}
	.st5{fill:#4B369D;}
	.st6{fill:#D4A79A;}
	.st7{fill:#EAC2AB;}
	.st8{fill:#F3AA02;}
	.st9{fill:#5A54FF;}
	.st10{fill:#D7384E;}
</style>
<g id="Nature">
	<g id="Plant">
		<path class="st0" d="M577.55,846c1.33-2.98,2.2-6.14,2.42-9.53c2.03-30.74-30.18-25.75-49.25-34.71
			c-17.81-8.37-18.56-27.78-19.83-44.9c-1.69-22.92-3.22-39.15-19.01-57.47c-33.71-39.12-25.76-81.85-43.62-127.28
			c-11.54-29.35-38.72-52.1-68.55-62.82c-8.84-3.18-19.13-5.58-29.97-2.38c-19.71,5.81-30.29,26.86-28.64,42.25
			c1.65,15.38,11.17,27.91,14.06,42.91c2.89,15-4.16,35.68-23.16,44.26c-9.53,4.3-22.39,6.23-26.48,14.33
			c-1.83,3.62-0.96,7.2,0.32,10.31c5.66,13.8,18.79,23.52,23.78,37.55c5.88,16.54-1.54,29.14-7.79,44.26
			c-2.8,6.79-4.24,14.92-0.47,21.23c6.96,11.63,23.94,8.53,31.9,18.92c9.47,12.37-6.84,31.98-20.42,47.06s-24.88,37.97-9.04,44.8
			c4.93,2.13,11.39,1.88,17.18,2.7c26.02,3.66,34.87,27.14,40.69,48.14c6.28,22.64,30.65,30.01,47.12,43.4
			c18.57,15.09,24.5,44.69,55.52,31.73c21.24-8.87,30.9-31.49,42.93-49.43c13.18-19.66,27.21-39.09,35.58-61.42
			C549.34,873.31,570.32,862.21,577.55,846z"/>
		<g>
			<g>
				<path class="st1" d="M462.63,1003.46c-0.65,0-1.23-0.45-1.37-1.11l-70.67-331.16c-0.16-0.76,0.32-1.51,1.08-1.67
					c0.76-0.17,1.5,0.32,1.67,1.08l70.67,331.16c0.16,0.76-0.32,1.51-1.08,1.67C462.83,1003.45,462.73,1003.46,462.63,1003.46z"/>
			</g>
			<g>
				<path class="st1" d="M417.61,785.9c-0.08,0-0.17-0.01-0.25-0.02c-0.76-0.14-1.27-0.87-1.13-1.63l12.64-70.39
					c0.14-0.76,0.87-1.26,1.63-1.13c0.76,0.14,1.27,0.87,1.13,1.63l-12.64,70.39C418.87,785.42,418.28,785.9,417.61,785.9z"/>
			</g>
			<g>
				<path class="st1" d="M442.68,909.93c-0.44,0-0.88-0.21-1.15-0.6l-38.37-55.16c-0.44-0.64-0.29-1.51,0.35-1.96
					c0.64-0.44,1.51-0.29,1.96,0.35l38.37,55.16c0.44,0.64,0.29,1.51-0.35,1.96C443.23,909.85,442.95,909.93,442.68,909.93z"/>
			</g>
		</g>
	</g>
	<ellipse id="Ground" class="st0" cx="996.88" cy="1015.9" rx="514.37" ry="15.05"/>
	<g id="Plant_1_">
		<path class="st2" d="M1115.36,955.59c-3.07-5.98-5.62-12.53-5.17-19.24c0.82-12.19,10.91-21.34,19.61-29.92
			c8.7-8.58,17.25-20.18,13.96-31.95c-3.16-11.31-15.49-16.83-25.93-22.2s-21.61-14.91-19.31-26.42
			c3.3-16.49,30.5-19.06,33.45-35.62c1.07-5.99-1.61-11.95-4.21-17.46c-8.89-18.79-17.78-37.58-26.67-56.37
			c-4.07-8.6-7.72-19.99-0.91-26.63c4.59-4.47,11.8-4.37,17.81-6.57c15.6-5.72,20.28-24.98,23.86-41.21
			c3.58-16.22,11.92-35.35,28.49-36.55c6.38-0.46,12.62,2.07,18.13,5.33c21.85,12.93,35.33,38.81,33.41,64.13
			c-0.82,10.84-3.92,22.94,2.48,31.73c3.33,4.57,8.61,7.2,13.27,10.39c17.84,12.19,27.7,35.1,24.28,56.43
			c-2.33,14.56-10.09,30.06-3.25,43.12c7.66,14.61,29.59,17.1,36.86,31.9c5.99,12.18-0.82,26.66-8.68,37.73
			c-7.86,11.07-17.37,22.56-17.03,36.13c0.17,7.02,3.05,13.7,3.81,20.68c1.95,17.8-10,34.29-23.87,45.62
			c-17.91,14.64-45.08,30.17-68.72,22.33C1153.97,1002,1128.34,980.87,1115.36,955.59z"/>
		<g>
			<path class="st1" d="M1203.35,1014.49c-0.72,0-1.34-0.56-1.4-1.29l-21.62-267.78c-0.06-0.77,0.52-1.45,1.29-1.51
				c0.86-0.03,1.45,0.51,1.51,1.29l21.62,267.78c0.06,0.77-0.52,1.45-1.29,1.51C1203.43,1014.49,1203.39,1014.49,1203.35,1014.49z"
				/>
		</g>
		<g>
			<path class="st1" d="M1188.04,824.76c-0.31,0-0.62-0.1-0.88-0.31c-0.61-0.48-0.7-1.37-0.22-1.97l37.98-47.4
				c0.49-0.61,1.37-0.7,1.98-0.22c0.61,0.48,0.7,1.37,0.22,1.97l-37.98,47.4C1188.86,824.58,1188.45,824.76,1188.04,824.76z"/>
		</g>
		<g>
			<path class="st1" d="M1197.11,917.16c-0.31,0-0.62-0.1-0.88-0.31c-0.61-0.48-0.7-1.37-0.22-1.97l37.98-47.4
				c0.49-0.61,1.37-0.7,1.98-0.22c0.61,0.48,0.7,1.37,0.22,1.97l-37.98,47.4C1197.93,916.98,1197.52,917.16,1197.11,917.16z"/>
		</g>
		<g>
			<path class="st1" d="M1192.54,880.6c-0.33,0-0.65-0.11-0.92-0.34l-35.48-30.55c-0.59-0.51-0.65-1.39-0.15-1.98
				c0.51-0.59,1.39-0.66,1.98-0.15l35.48,30.55c0.59,0.51,0.65,1.39,0.15,1.98C1193.33,880.43,1192.94,880.6,1192.54,880.6z"/>
		</g>
	</g>
	<g id="Plant_2_">
		<path class="st3" d="M1207.88,941.84c-1.9-3.94-3.85-8.11-3.51-12.47c0.48-6.09,5.25-10.9,10.03-14.71
			c10.87-8.67,23.38-15.35,33.09-25.31c9.71-9.96,16.33-24.72,11.62-37.8c-3.71-10.3-13.85-18.15-14.52-29.08
			c-0.9-14.47,14.62-23.84,21.91-36.37c6.07-10.43,6.29-23.16,9.97-34.65c3.68-11.49,13.78-23.06,25.65-20.9
			c13.06,2.37,17.69,18.7,17.85,31.98s-0.56,28.7,9.56,37.29c3.5,2.97,8.06,4.8,10.77,8.51c2.46,3.38,2.96,7.76,3.39,11.92
			c2.36,23.16,4.22,48.49-8.82,67.77c-2.98,4.41-6.77,8.57-7.81,13.8c-2.56,12.93,12.69,24.23,10.6,37.25
			c-1.78,11.04-14.56,16.19-21.27,25.14c-7.62,10.16-6.97,24.81-14.7,34.88c-11.52,15.01-44.23,18.07-59.33,6.7
			C1225.25,992.89,1216.77,960.23,1207.88,941.84z"/>
		<g>
			<path class="st1" d="M1261.6,1014.57c-0.07,0-0.15-0.01-0.23-0.02c-0.76-0.13-1.28-0.85-1.16-1.62l33.89-205.11
				c0.12-0.76,0.78-1.3,1.62-1.16c0.76,0.13,1.28,0.85,1.16,1.62l-33.89,205.11C1262.87,1014.08,1262.27,1014.57,1261.6,1014.57z"/>
		</g>
		<g>
			<path class="st1" d="M1285.2,880.04c-0.32,0-0.65-0.11-0.91-0.33c-0.59-0.51-0.66-1.39-0.16-1.98l33.51-39.33
				c0.5-0.59,1.39-0.66,1.98-0.16c0.59,0.5,0.66,1.39,0.16,1.98l-33.51,39.33C1285.99,879.87,1285.59,880.04,1285.2,880.04z"/>
		</g>
		<g>
			<path class="st1" d="M1271.17,956.64c-0.51,0-1-0.28-1.25-0.76l-19.66-38.26c-0.35-0.69-0.08-1.54,0.61-1.89
				c0.7-0.36,1.53-0.08,1.9,0.61l19.66,38.26c0.35,0.69,0.08,1.54-0.61,1.89C1271.61,956.59,1271.39,956.64,1271.17,956.64z"/>
		</g>
	</g>
	<g id="Plant_3_">
		<path class="st4" d="M1372.71,970.79c5.08-6.49,15.2-10.62,14.66-18.84c-0.46-6.98-9.1-12.29-7.41-19.08
			c1.6-6.39,10.33-7.03,16.88-6.26c1.29-4.42,0.32-9.12-0.13-13.7c-0.45-4.58-0.19-9.68,2.94-13.06c3.13-3.38,9.93-3.2,11.39,1.16
			c2.32-6.55,4.64-13.09,6.97-19.64c0.95-2.69,2.34-5.77,5.13-6.35c4.07-0.85,6.82,4.51,6.18,8.62c-0.64,4.11-3.05,7.92-2.9,12.08
			c0.19,5.28,5.22,9.88,10.5,9.61c-5.43,4.23-11.43,11.3-7.64,17.04c1.91,2.89,6.17,5.29,4.91,8.51c-1.25,3.21-7.02,2.92-7.73,6.3
			c-0.96,4.5,8.61,6.59,6.81,10.83c-5.9-0.93-11,6.9-7.76,11.92c3.56,5.52,12.29,4.7,17.04,9.24c3.41,3.26,3.94,8.68,2.54,13.18
			c-5.5,17.7-26.2,38.97-45.62,32.02C1384.04,1008.83,1357.94,989.64,1372.71,970.79z"/>
		<g>
			<path class="st1" d="M1404.87,1016.99c-0.03,0-0.07,0-0.11,0c-0.77-0.06-1.35-0.73-1.3-1.51l7.29-97.27
				c0.05-0.77,0.63-1.34,1.51-1.3c0.77,0.06,1.35,0.73,1.3,1.51l-7.29,97.27C1406.22,1016.42,1405.6,1016.99,1404.87,1016.99z"/>
		</g>
		<g>
			<path class="st1" d="M1407.93,976.15c-0.31,0-0.63-0.1-0.89-0.32l-17.89-14.58c-0.6-0.49-0.69-1.37-0.2-1.98
				c0.49-0.6,1.38-0.69,1.98-0.2l17.89,14.58c0.6,0.49,0.69,1.37,0.2,1.98C1408.74,975.97,1408.34,976.15,1407.93,976.15z"/>
		</g>
		<g>
			<path class="st1" d="M1407.3,1003.07c-0.41,0-0.82-0.18-1.09-0.52c-0.49-0.6-0.39-1.49,0.21-1.98l28.26-22.82
				c0.6-0.48,1.48-0.39,1.98,0.21c0.49,0.6,0.39,1.49-0.21,1.98l-28.26,22.82C1407.92,1002.97,1407.61,1003.07,1407.3,1003.07z"/>
		</g>
	</g>
	<g id="Plant_4_">
		<path class="st2" d="M455.75,806.35c-1.87-6.51-7.72-11.96-12.07-17.82c-4.34-5.85-7.17-13.18-2.78-19.01
			c2.05-2.71,5.41-4.74,8.24-7.06c12.92-10.59,13.64-26.5,9.55-40.36c-4.09-13.86-12.22-27.05-14.68-41.12
			c-2.27-13.03,2.43-28.52,18.63-34.26c11.89-4.21,27.09-1.47,36.46,5.33c9.37,6.81,13.26,16.95,12.29,26.57
			c-0.39,3.85-1.38,8.06,1.48,11.31c5.64,6.43,20.34,3.52,28.36,8.42c6.86,4.19,5.86,12.07,2.97,18.25
			c-2.89,6.17-7.11,12.64-4.71,18.93c2.97,7.76,15.29,12.61,16.54,20.62c0.51,3.28-0.99,6.65,0,9.87
			c2.77,9.07,23.45,13.79,19.13,22.54c-3.35,6.79-18.68,5.96-23.41,12.3c-5.03,6.73,6.08,14.51,4.69,22.11
			c-0.47,2.59-2.38,4.9-4.24,7.13c-12.67,15.17-25.35,30.33-38.02,45.5c-2.29,2.74-4.62,5.52-7.78,7.75
			c-19.46,13.75-49.09,4.9-52.4-12.76c-1.58-8.41-3.65-18.34-4.27-26.85C448.83,831.12,459.34,818.86,455.75,806.35z"/>
		<g>
			
				<rect x="502.02" y="741.27" transform="matrix(0.9982 -0.0599 0.0599 0.9982 -51.5477 31.7298)" class="st5" width="2.81" height="268.65"/>
		</g>
		<g>
			
				<rect x="489.18" y="794.97" transform="matrix(0.6411 -0.7675 0.7675 0.6411 -424.7203 684.5723)" class="st5" width="60.74" height="2.81"/>
		</g>
		<g>
			
				<rect x="484.6" y="836.54" transform="matrix(0.668 -0.7442 0.7442 0.668 -478.5983 647.1913)" class="st5" width="2.81" height="46.83"/>
		</g>
	</g>
	<path id="Plant_5_" class="st2" d="M343.65,996.75c-3.54-4.19-6.58-9.03-7.37-14.45c-0.19-1.31-0.21-2.76,0.58-3.82
		c0.68-0.92,1.84-1.36,2.96-1.59c7.94-1.7,15.39,4.12,21.13,9.87c10.13,10.16,19.17,21.4,26.92,33.47
		c-4.64-7.22-7.08-21.07-5.98-29.56c0.04-0.33,0.11-0.7,0.37-0.91c0.27-0.22,0.65-0.2,0.98-0.14c2.44,0.47,3.98,2.84,5.15,5.04
		c3.62,6.8,6.78,14.66,8.88,22.29c-1.32-4.79,2.59-10.56,6.13-13.42c6.34-5.1,4.99,2.02,3.61,6.2c-1.35,4.1-10.31,20.16-16.7,16.57
		c-1.17-0.66-1.46-4.24-2.42-5.4c-1.67-2-4-2.66-6.4-3.4c-6.44-2-13.15-2.83-19.22-5.97C355.19,1007.85,348.8,1002.84,343.65,996.75
		z"/>
	<path id="Plant_6_" class="st3" d="M1104.86,1009.54c0.81-8.26,0.79-15.92,3.5-23.98c0.91-2.72,2.21-5.62,4.79-6.86
		c0.49-0.24,1.07-0.4,1.56-0.18c0.43,0.19,0.7,0.62,0.92,1.05c14.04,26.9-23.64,42.03-40.83,21.8c-1.06-1.25-2.06-2.68-2.21-4.32
		c-0.27-3,2.59-5.59,5.58-5.94c2.99-0.35,5.92,1.01,8.39,2.72c6.54,4.53,10.89,11.51,15.05,18.28c-5.8-8.72-8.79-19.27-8.44-29.73
		c0.05-1.57,0.58-3.58,2.15-3.71c0.75-0.06,1.44,0.37,2.04,0.83c4.28,3.29,6.69,8.56,7.59,13.89
		C1105.85,998.71,1105.38,1004.16,1104.86,1009.54z"/>
	<path id="Plant_7_" class="st4" d="M521.33,963.09c0.38,0.01,0.76,0.11,1.15,0.32c1.22,0.66,1.67,2.16,1.96,3.52
		c2.65,12.43,2.58,9.38,1.26,25.69c2.78-10.18,1.68-8.4,6.88-17.59c1.01-1.79,2.13-3.62,3.88-4.69c11.35-6.95,0.36,23.84-1.56,27.37
		c-7.12,13.1-20.97,16.34-34.41,11.52c-11.79-4.23-23.05-13.41-27.27-25.42c-0.38-1.08-0.66-2.44,0.15-3.26
		c0.56-0.56,1.43-0.64,2.22-0.65c7.12-0.01,13.79,3.61,19.24,8.19c5.44,4.59,9.95,10.17,15.07,15.11c3.63,3.5,11.64,3.3,16.64,3.9
		c8.51,1.03,11.87-2.27,19.26-6.62c1.61-0.95,3.37-1.81,5.24-1.79c1.87,0.02,3.85,1.19,4.2,3.03c0.21,1.09-0.17,2.21-0.65,3.22
		c-6.05,12.78-22.54,11.06-29.81,0.86c-6.93-9.73-11.4-25.93-8.08-37.6C517.37,965.84,519.23,963.05,521.33,963.09z"/>
	<path id="Plant_8_" class="st2" d="M1491.41,983.09c0.26,0.01,0.53,0.07,0.8,0.22c0.85,0.46,1.16,1.51,1.36,2.46
		c1.85,8.68,1.8,6.55,0.88,17.93c1.94-7.11,1.17-5.86,4.8-12.28c0.7-1.25,1.49-2.53,2.71-3.28c7.92-4.85,0.25,16.63-1.09,19.1
		c-4.97,9.14-14.64,11.41-24.01,8.04c-8.23-2.95-16.09-9.36-19.03-17.74c-0.27-0.76-0.46-1.7,0.11-2.28c0.39-0.39,1-0.45,1.55-0.45
		c4.97-0.01,9.63,2.52,13.42,5.72s6.94,7.1,10.52,10.55c2.53,2.44,8.12,2.3,11.61,2.72c5.94,0.72,8.28-1.59,13.44-4.62
		c1.12-0.66,2.35-1.27,3.66-1.25c1.3,0.01,2.68,0.83,2.93,2.11c0.15,0.76-0.12,1.54-0.45,2.24c-4.22,8.92-15.73,7.72-20.8,0.6
		c-4.84-6.79-7.95-18.1-5.64-26.24C1488.65,985.01,1489.95,983.06,1491.41,983.09z"/>
</g>
<g id="Characters">
	<g id="Man">
		<g id="Bag">
			<polygon class="st5" points="719.84,505.98 834.74,377.68 818.5,415.59 726.6,505.98 			"/>
			<path class="st5" d="M783.24,636.84l-76.97-29.62c-13.43-5.17-20.19-20.39-15.02-33.82l22.34-58.06
				c5.17-13.43,20.39-20.19,33.82-15.02l76.97,29.62c13.43,5.17,20.19,20.39,15.02,33.82l-22.34,58.06
				C811.89,635.25,796.68,642.01,783.24,636.84z"/>
		</g>
		<path id="Phone" class="st5" d="M1012.77,422.91l45.38-76.32c0,0,17.7-10.09,13.91,3.49c-3.79,13.58-43.84,79.4-43.84,79.4
			L1012.77,422.91z"/>
		<g id="Head">
			<path id="Neck" class="st6" d="M884.43,361.79l-13.52,43.42l-37.83,4.55c0,0,28.41-25.06,31.74-52.95
				C868.16,328.93,884.43,361.79,884.43,361.79z"/>
			<path id="Face" class="st7" d="M938.06,279.52c0,0,4.99,11.85-10.07,40.48c-15.05,28.63-33.54,51.66-42.26,47.49
				c-24.12-11.52-28.48-31.73-33.39-49.38c-6.01-21.64,27.12-62.3,27.12-62.3l23.03-5.79L938.06,279.52z"/>
			<path id="Hair" class="st5" d="M858.76,292.86c0,0-2.44,17.62-2.47,38.92c0,0.8-0.07,1.46-0.58,2.07
				c-1.26,1.49-10.75-14.41-11.46-15.64c-4.66-8.02-11.78-17.82-8.96-27.53c0.79-2.71,2.21-5.26,2.46-8.06
				c0.46-5.28-3.61-8.63-4.55-13.37c-0.88-4.4,0.3-9.42,1.66-13.58c2.59-7.9,7.85-16.55,15.07-21.02c5.69-3.52,10.51-1.8,16.2-3.78
				c3-1.04,4.35-4.42,6.37-6.87c3.11-3.76,8.17-5.48,13.05-5.61c6.02-0.17,14.71,1.03,19.84,4.51c6.53,4.43,7.18,16.14,13.35,19.41
				c1.06,0.56,2.28,0.69,3.47,0.8c11.51,1.12,22.43,0.6,31.65,8.48c14.56,12.44,4.58,56.44-16.9,43.99
				c-2.46-1.43-4.55-3.41-6.9-5.02c-11.3-7.77-25.65,5.25-33.26-14.4c-1.36-3.51-24.85-4.76-25.16,4.83
				C871.25,293.51,858.76,292.86,858.76,292.86z"/>
			<path id="Ear" class="st7" d="M863.99,292.57c0,0-6.68-12.95-9.75,3.45s4.54,21.87,4.54,21.87L863.99,292.57z"/>
		</g>
		<g id="Leg_2_">
			<path id="Skin_1_" class="st6" d="M693.44,899.69l-34.28,47.81l-17.16-9.82l38.73-47.76
				C680.73,889.93,690.87,893.94,693.44,899.69z"/>
			<path id="Shoe_1_" class="st8" d="M701.91,1006.73c-0.86,1.02-7.45-0.53-8.45-0.68c-10.32-1.53-26.26-3.36-34.15-10.76
				c-7.68-7.21-11.6-18.09-18.07-26.32c-4.56-5.79-10.91-9.89-16.68-14.41c-6.36-4.99,13.08-34.58,20.73-28.04
				c6.19,5.3,0.92,16.33,18.69,17.68c15.22,1.16,2.19,21.04,17.56,36.66C695.12,994.68,711.28,995.6,701.91,1006.73z"/>
			<path id="Leg_3_" class="st5" d="M799.82,701.6c-11.63,41.47-4.87,42.15-33.51,74.5c-13.97,15.78-91.33,80.94-105.73,96.36
				c-20.54,21.99,0.88,32.1,16.12,38.54c9.97,4.21,15.92,26.12,31.07,9.99c1.5-1.59,27.58-35.26,35.41-50.01
				c8.96-16.89,60.35-63.09,78.06-79.33c42.16-38.65,20.85-57.22,46.65-107.82c9.82-19.27,7.64-39.78,10.55-61.94
				c1.78-13.56-18.91-77.03-47.69-65.81c-17.91,6.99-11.07,43.32-10.31,57.65c0.53,9.91,1.96,20.84-0.5,30.43
				C814.89,663.84,805.32,682.01,799.82,701.6z"/>
		</g>
		<g id="Leg">
			<path id="Skin" class="st7" d="M890.71,920.91l13.01,59.19l-19.34,6.38l-9.91-62.57C874.48,923.92,884.53,918.91,890.71,920.91z"
				/>
			<path id="Shoe" class="st4" d="M982.92,1003.43c0,0-14.47,4.94-42.21,7c-27.74,2.06-58.7,3.09-64.32-1.03
				c-5.63-4.12-9.25-39.11,0-39.11c9.25,0,12.84,13.38,29.15,1.44c13.97-10.23,25.13,9.06,49.45,14.2
				C979.31,991.07,989.15,993.13,982.92,1003.43z"/>
			<path id="Leg_1_" class="st9" d="M939.63,943.96c-0.93-2.17-3.37-3.79-5.49-5.48c-19.37-15.44-9.26-38.88-11.54-59.57
				c-7.11-64.46,5.13-102.17-19.11-168.02c-16.5-44.81-20.95-74.38-24.94-124.16c-1.39-17.28,32.84-39.61,6.73-34.67
				c-12.37,2.34-24.58,1.88-36.91-0.28c-6.49-1.14,0.13-3.25-6.49-1.14c-22.55,7.2-39.33,47.57-39.61,63.12
				c-0.63,34.86,26.13,57.74,33.44,88.23c12.84,53.55,33.02,91.43,27.75,135.49c-2.58,21.59-5.58,43.12-8.46,64.67
				c-1.68,12.57-12.19,40.11-5.14,51.49c9.68,15.62,52.81,2.38,67.22,2.03C927.91,955.4,942.79,951.33,939.63,943.96z"/>
		</g>
		<path id="Body_1_" class="st10" d="M890.46,469.54c-6.54-26.54,0.56-71.18-18.15-90.87c-1.92-2.02-3.95-4.01-6.49-5.16
			c-23.51-10.59-37.69,8.71-47.8,25.44c-10.12,16.75-9.89,34.87-14.83,53.65c-5.62,21.35-4.49,43.55-4.89,65.59
			c-0.25,13.42,1.39,26.75,0.63,40.19c-0.53,9.38-1.86,18.7-4,27.84c-1.42,6.08-9.37,18.15-7.05,24.34
			c1.84,4.9,10.26,3.05,14.4,3.19c16.01,0.53,31.7-4.22,45.94-11.26c13.01-6.43,26.76-6.18,41.77-7.42
			c7.45-0.62,17.11-7.04,13.74-20.58c-7.99-32.09-5.66-60.2-8.96-82.86C893.69,484.31,892.27,476.9,890.46,469.54z"/>
		<path id="Arm" class="st7" d="M848.74,412.97c0,0,33.47,76.37,49.75,86.66s30.38,8.82,59.08-9.97
			c28.71-18.79,54.52-41.23,57.25-43.79s26.27-5.36,28.33-15.52s11.01-43.03,2.39-36.58s-16.05,27.73-23.23,28.1
			c-7.18,0.37,2.99-21.98-3.54-18.38s-6.99,9.52-9.34,14.55c-2.35,5.03,0.75,10.7-13.52,23.2c-14.27,12.5-60.94,45.13-74.37,42.7
			c-13.43-2.44-62.63-74.81-64.64-80.35C854.88,398.06,848.74,412.97,848.74,412.97z"/>
		<path id="Body" class="st3" d="M894.87,438.11c0,0-20.34-60.88-44.52-48.61c-24.18,12.27,11.69,76.96,11.69,76.96l39.28-20.66
			L894.87,438.11z"/>
	</g>
</g>
<g id="UI">
	<g id="Chat">
		<path class="st0" d="M1075.32,232.96c2.48,3.99,7.03,6.61,10.89,4.76c-4.37,5.55-3.13,21.18-4.29,28.67
			c22.56-16.8,45.14-33.96,71.72-32.89c4.3,0.17,9.05,0.43,12.41-2.77c1.58-1.51,2.67-3.64,3.57-5.81
			c5.89-14.22,4.95-30.94,3.88-46.75c-0.19-2.74-0.57-5.89-2.53-7.34c-1.12-0.83-2.5-0.89-3.82-0.9
			c-22.68-0.14-44.96,8.01-67.68,6.16c-7.22-0.59-20.55-8.46-27.02-3.73c-5.73,4.2-5.06,15.69-4.64,22.46
			C1068.51,206.18,1069.5,223.57,1075.32,232.96z"/>
		<g>
			<path class="st0" d="M1167.4,279.46l0.78-4.18c0.34-1.83,0.46-4.42,0.6-7.16c0.24-4.87,0.5-10.22,2.01-14.18
				c-3.53-0.31-6.86-2.51-8.87-5.22h0c-6.07-8.2-7.14-22.85-7.84-32.54l-0.03-0.4c-0.42-5.74-1.2-16.42,5.53-20.56
				c4.97-3.06,12.74-0.92,19.59,0.97c3.23,0.89,6.29,1.73,8.54,1.88c12.23,0.83,24.63-0.84,36.63-2.45
				c10.08-1.36,20.35-2.83,30.93-2.71c1.6,0.01,3.28,0.09,4.79,1.03c2.94,1.82,3.25,5.57,3.41,7.59c1,12.22,2.23,27.44-4.06,40.16
				c-0.86,1.73-2.09,3.92-4.08,5.5c-3.83,3.07-8.92,2.9-13.39,2.74c-25.74-0.84-48.21,13.09-69.83,26.6L1167.4,279.46z
				 M1181.48,246.69l-5.81,6.19c-2.53,2.7-2.88,9.76-3.16,15.43c-0.06,1.27-0.12,2.5-0.2,3.67c21.42-13.36,43.59-26.66,69.48-25.8
				c4.28,0.14,8.42,0.28,11.18-1.92c1.41-1.12,2.37-2.85,3.06-4.23c5.83-11.79,4.64-26.43,3.69-38.2c-0.16-2.02-0.48-3.98-1.65-4.71
				c-0.68-0.42-1.73-0.46-2.84-0.47c-10.23-0.05-20.45,1.34-30.41,2.68c-12.18,1.64-24.78,3.33-37.39,2.48
				c-2.62-0.18-5.85-1.07-9.28-2.01c-6.11-1.68-13.05-3.6-16.63-1.39c-4.79,2.94-4.12,12.14-3.75,17.09l0.03,0.4
				c0.67,9.26,1.69,23.26,7.12,30.59l0,0c1.9,2.56,5.58,4.61,8.69,3.36L1181.48,246.69z"/>
		</g>
		<path class="st2" d="M1106.93,278.79c2.48,3.34,7.03,5.54,10.89,3.99c-4.37,4.65-3.13,17.75-4.29,24.02
			c22.56-14.08,45.14-28.46,71.72-27.57c4.3,0.14,9.05,0.36,12.41-2.32c1.58-1.26,2.67-3.05,3.57-4.87
			c5.89-11.92,4.95-25.93,3.88-39.18c-0.19-2.3-0.57-4.93-2.53-6.15c-1.12-0.69-2.5-0.74-3.82-0.75
			c-22.68-0.11-44.96,6.72-67.68,5.16c-7.22-0.49-20.55-7.09-27.02-3.13c-5.73,3.52-5.06,13.15-4.64,18.83
			C1100.12,256.35,1101.11,270.92,1106.93,278.79z"/>
		<path class="st0" d="M1054.09,305.94c-0.23-6.28-0.55-12.91-3.95-18.19c-1.3-2.03-3.11-3.84-5.4-4.59
			c-2.01-0.66-4.18-0.46-6.28-0.25c-9.72,0.97-19.43,1.94-29.15,2.91c-5.08,0.51-10.28,1.05-14.88,3.25
			c-4.6,2.21-8.57,6.46-8.98,11.55c-0.29,3.59,1.2,7.1,3.06,10.18c1.32,2.19,2.86,4.27,4.81,5.92c4.71,3.98,11.25,5.02,17.41,4.87
			c6.16-0.15,12.29-1.32,18.45-1.09c6.83,0.25,16.06,6.37,21.75,6.73C1062.51,327.98,1054.32,312.2,1054.09,305.94z"/>
		<path class="st0" d="M1168.44,300.49c3.03-1.6,6.64-1.51,10.07-1.38c22.93,0.84,45.86,1.68,68.79,2.53
			c1.42,0.05,2.89,0.12,4.14,0.8c2.25,1.22,3.06,4,3.61,6.5c1.75,7.88,3.01,15.87,3.77,23.9c0.22,2.37,0.38,4.89-0.68,7.03
			c-2,4.01-7.21,4.92-11.67,5.35c-17.59,1.68-35.25,3.36-52.9,2.49c-7.66-0.38-15.37-1.23-22.99-0.31
			c-7.76,0.94-26.04,10.11-33.21,6.46c-5.19-2.64,0.27-5.54,3.88-8.81c6.71-6.06,13.11-11.6,16.61-20.21
			C1160.92,317.28,1160.22,304.82,1168.44,300.49z"/>
		<path class="st0" d="M1112.06,381.68c5.6,1.61,10.61,4.82,16.14,6.65c7.2,2.37,14.95,2.29,22.53,2.19
			c13.65-0.18,27.29-0.37,40.94-0.55c3.82-0.05,8.14,0.11,10.68,2.95c1.66,1.86,2.15,4.46,2.57,6.92
			c1.32,7.66,2.64,15.31,3.95,22.97c0.7,4.06,1.3,8.61-1.09,11.97c-2.68,3.77-7.92,4.42-12.53,4.74
			c-19.63,1.35-39.25,2.71-58.88,4.06c-1.85,0.13-3.83,0.23-5.44-0.69c-1.48-0.85-2.39-2.42-3.17-3.94
			c-3.29-6.41-5.67-13.28-7.05-20.35c-0.99-5.08-1.51-10.4-3.99-14.94c-3.87-7.07-1.58-7.39-5.25-13.64
			C1106.14,380.93,1106.58,380.1,1112.06,381.68z"/>
		<path class="st2" d="M1283.03,263.53c3.16,0.91,6,2.73,9.13,3.76c4.07,1.34,8.45,1.3,12.74,1.24c7.72-0.1,15.44-0.21,23.15-0.31
			c2.16-0.03,4.6,0.06,6.04,1.67c0.94,1.05,1.22,2.52,1.46,3.91c0.75,4.33,1.49,8.66,2.24,12.99c0.4,2.3,0.73,4.87-0.62,6.77
			c-1.51,2.13-4.48,2.5-7.09,2.68c-11.1,0.77-22.2,1.53-33.3,2.3c-1.05,0.07-2.17,0.13-3.08-0.39c-0.84-0.48-1.35-1.37-1.79-2.23
			c-1.86-3.62-3.21-7.51-3.99-11.51c-0.56-2.88-0.85-5.88-2.26-8.45c-2.19-4-0.9-4.18-2.97-7.71
			C1279.68,263.1,1279.93,262.64,1283.03,263.53z"/>
		<circle class="st5" cx="1186.64" cy="325.43" r="5.47"/>
		<circle class="st5" cx="1209.5" cy="325.43" r="5.47"/>
		<circle class="st5" cx="1233.41" cy="325.43" r="5.47"/>
		<circle class="st1" cx="1299.28" cy="284.48" r="3.6"/>
		<circle class="st1" cx="1314.34" cy="284.48" r="3.6"/>
		<circle class="st1" cx="1330.08" cy="284.48" r="3.6"/>
		<path class="st1" d="M1155.6,199.89h-69.36c-1.12,0-2.04-0.92-2.04-2.04v-7.55c0-1.12,0.92-2.04,2.04-2.04h69.36
			c1.12,0,2.04,0.92,2.04,2.04v7.55C1157.64,198.97,1156.72,199.89,1155.6,199.89z"/>
		<path class="st1" d="M1155.6,219h-39.7c-1.12,0-2.04-0.92-2.04-2.04v-7.55c0-1.12,0.92-2.04,2.04-2.04h39.7
			c1.12,0,2.04,0.92,2.04,2.04v7.55C1157.64,218.08,1156.72,219,1155.6,219z"/>
		<g>
			<path class="st1" d="M1167.97,243.21h-53.55c-1.12,0-2.04-0.92-2.04-2.04v-1.04c0-1.12,0.92-2.04,2.04-2.04h53.55
				c1.12,0,2.04,0.92,2.04,2.04v1.04C1170.01,242.29,1169.09,243.21,1167.97,243.21z"/>
			<path class="st1" d="M1190.64,256.21h-76.22c-1.12,0-2.04-0.92-2.04-2.04v-0.98c0-1.12,0.92-2.04,2.04-2.04h76.22
				c1.12,0,2.04,0.92,2.04,2.04v0.98C1192.69,255.29,1191.77,256.21,1190.64,256.21z"/>
			<path class="st1" d="M1190.64,268.58h-76.22c-1.12,0-2.04-0.92-2.04-2.04v-0.98c0-1.12,0.92-2.04,2.04-2.04h76.22
				c1.12,0,2.04,0.92,2.04,2.04v0.98C1192.69,267.66,1191.77,268.58,1190.64,268.58z"/>
		</g>
		<path class="st1" d="M1174.29,431.47h-16.45c-4.21,0-7.66-3.45-7.66-7.66v-16.45c0-4.21,3.45-7.66,7.66-7.66h16.45
			c4.21,0,7.66,3.45,7.66,7.66v16.45C1181.95,428.02,1178.5,431.47,1174.29,431.47z"/>
		<path class="st5" d="M1167.31,417.55h-2.5c-2.85,0-5.19-2.33-5.19-5.19v-2.5c0-2.85,2.33-5.19,5.19-5.19h2.5
			c2.85,0,5.19,2.33,5.19,5.19v2.5C1172.5,415.22,1170.16,417.55,1167.31,417.55z"/>
		<path class="st5" d="M1166.06,417.64c-4.64,0-8.44,3.8-8.44,8.44h16.87C1174.5,421.44,1170.7,417.64,1166.06,417.64z"/>
		<path class="st2" d="M1036.46,308.63h-23.42c-4.21,0-7.66-3.45-7.66-7.66v-23.42c0-4.21,3.45-7.66,7.66-7.66h23.42
			c4.21,0,7.66,3.45,7.66,7.66v23.42C1044.12,305.19,1040.68,308.63,1036.46,308.63z"/>
	</g>
</g>
</svg>
